#!OML:ASF H:\Punching\Project 1\Capture day 1\Session 1\female.ASF
:FULLY-SPECIFIED
:DEGREES
2037
root 6.4636 15.5758 12.5617 -168.271 342.791 -177.977
lowerback -7.03497 1.47437 2.88301
upperback -6.10013 1.35705 -0.769888
thorax -2.27221 0.366739 -2.33487
lowerneck -12.7427 8.23375 13.5111
upperneck 38.0697 7.20345 -5.13736
head 16.7344 3.16045 -3.67223
rclavicle -1.31571e-014 -1.72943e-014
rhumerus -38.082 -6.4606 -79.1652
rradius 27.9799
rwrist 10.6171
rhand -11.3256 -5.44117
rfingers 7.12502
rthumb 14.7068 -34.8995
lclavicle -1.31571e-014 -1.72943e-014
lhumerus -51.06 9.72777 68.1774
lradius 30.8449
lwrist -20.69
lhand -3.14324 13.2694
lfingers 7.12502
lthumb 22.5765 41.9693
rfemur 5.76319 5.93769 28.1553
rtibia 13.0249
rfoot -15.2826 -3.39002
rtoes -13.9546
lfemur -34.7876 -6.26864 -18.186
ltibia 26.0255
lfoot -9.23662 16.6306
ltoes 4.2625
2038
root 6.40626 15.5942 12.4552 -168.228 343.124 -178.309
lowerback -7.07813 1.51666 2.54186
upperback -6.12572 1.42101 -0.945487
thorax -2.2742 0.404124 -2.32099
lowerneck -12.6703 8.27688 13.617
upperneck 38.1528 7.20041 -5.08756
head 16.7684 3.17401 -3.67508
rclavicle -6.48908e-014 -1.19271e-015
rhumerus -38.5251 -6.70092 -79.0386
rradius 27.8523
rwrist 10.6241
rhand -10.944 -5.58425
rfingers 7.12502
rthumb 15.0744 -35.0154
lclavicle -6.48908e-014 -1.19271e-015
lhumerus -51.2053 9.91659 67.7319
lradius 30.6106
lwrist -20.9272
lhand -3.06325 13.2699
lfingers 7.12502
lthumb 22.6533 41.9605
rfemur 4.961 5.54103 27.5446
rtibia 15.4253
rfoot -15.5109 -2.82045
rtoes -15.4857
lfemur -34.092 -6.02055 -18.7664
ltibia 25.8617
lfoot -9.28437 16.3223
ltoes 5.08913
2039
root 6.34764 15.6127 12.3494 -168.176 343.487 -178.6
lowerback -7.14125 1.5717 2.25087
upperback -6.16164 1.49694 -1.10202
thorax -2.27512 0.444949 -2.31455
lowerneck -12.6063 8.32873 13.7145
upperneck 38.264 7.21083 -5.04634
head 16.8216 3.18939 -3.6793
rclavicle 3.01904e-014 1.47101e-014
rhumerus -38.9333 -6.91871 -78.8845
rradius 27.6777
rwrist 10.6858
rhand -10.5068 -5.71531
rfingers 7.12502
rthumb 15.4956 -35.1143
lclavicle 3.01904e-014 1.47101e-014
lhumerus -51.3288 10.0968 67.3364
lradius 30.4009
lwrist -21.1371
lhand -2.96349 13.2762
lfingers 7.12502
lthumb 22.749 41.955
rfemur 4.09513 5.01649 26.9172
rtibia 17.8364
rfoot -15.588 -2.08065
rtoes -16.9628
lfemur -33.3941 -5.72439 -19.3103
ltibia 25.6593
lfoot -9.39764 16.1493
ltoes 5.59469
2040
root 6.28783 15.631 12.2446 -168.118 343.874 -178.856
lowerback -7.21691 1.63536 2.00583
upperback -6.20802 1.5802 -1.23953
thorax -2.27951 0.487174 -2.31359
lowerneck -12.5518 8.39066 13.8039
upperneck 38.3999 7.23736 -5.01394
head 16.8931 3.20788 -3.68433
rclavicle 4.05272e-014 -9.54166e-015
rhumerus -39.3056 -7.11563 -78.7016
rradius 27.4715
rwrist 10.8284
rhand -10.0454 -5.83083
rfingers 7.12502
rthumb 15.9399 -35.1949
lclavicle 4.05272e-014 -9.54166e-015
lhumerus -51.4358 10.2702 66.9902
lradius 30.2205
lwrist -21.3214
lhand -2.85159 13.2841
lfingers 7.12502
lthumb 22.8564 41.9497
rfemur 3.15944 4.39031 26.2739
rtibia 20.2725
rfoot -15.5024 -1.19643
rtoes -18.3094
lfemur -32.692 -5.36862 -19.8306
ltibia 25.4144
lfoot -9.56399 16.0232
ltoes 5.83656
2041
root 6.22674 15.649 12.1407 -168.06 344.291 -179.084
lowerback -7.29639 1.70827 1.80042
upperback -6.26174 1.67277 -1.36156
thorax -2.28874 0.532287 -2.31829
lowerneck -12.5001 8.46065 13.8888
upperneck 38.5504 7.27864 -4.99167
head 16.976 3.22961 -3.69122
rclavicle 1.73937e-015 3.57812e-015
rhumerus -39.6388 -7.30162 -78.4866
rradius 27.2408
rwrist 11.0692
rhand -9.59552 -5.8886
rfingers 7.12502
rthumb 16.3731 -35.2175
lclavicle 1.73937e-015 3.57812e-015
lhumerus -51.5295 10.4209 66.7025
lradius 30.0821
lwrist -21.4671
lhand -2.72359 13.2967
lfingers 7.12502
lthumb 22.9792 41.947
rfemur 2.16214 3.70399 25.6131
rtibia 22.733
rfoot -15.2296 -0.195828
rtoes -19.4774
lfemur -31.9746 -4.94485 -20.3427
ltibia 25.1232
lfoot -9.76425 15.8729
ltoes 5.92246
2042
root 6.16473 15.6667 12.0379 -168.007 344.73 -179.288
lowerback -7.37419 1.7847 1.62693
upperback -6.31741 1.7684 -1.46613
thorax -2.30074 0.57797 -2.32263
lowerneck -12.4523 8.53879 13.97
upperneck 38.7035 7.33842 -4.98314
head 17.0649 3.25644 -3.70034
rclavicle 1.98785e-016 7.55382e-015
rhumerus -39.923 -7.47257 -78.2423
rradius 26.9973
rwrist 11.4059
rhand -9.18412 -5.87581
rfingers 7.12502
rthumb 16.7692 -35.1716
lclavicle 1.98785e-016 7.55382e-015
lhumerus -51.6088 10.5546 66.4747
lradius 29.9907
lwrist -21.5714
lhand -2.58379 13.309
lfingers 7.12502
lthumb 23.1134 41.9425
rfemur 1.10834 3.00287 24.9455
rtibia 25.209
rfoot -14.7455 0.879378
rtoes -20.4325
lfemur -31.2405 -4.46457 -20.8471
ltibia 24.782
lfoot -9.97399 15.6918
ltoes 5.91114
2043
root 6.10221 15.6844 11.9364 -167.955 345.182 -179.485
lowerback -7.44354 1.86031 1.46905
upperback -6.37634 1.86206 -1.55891
thorax -2.32111 0.622083 -2.3238
lowerneck -12.3983 8.62279 14.0527
upperneck 38.8483 7.41434 -4.98833
head 17.1513 3.28848 -3.71265
rclavicle -4.68138e-014 -9.14409e-015
rhumerus -40.1646 -7.63668 -77.9689
rradius 26.7509
rwrist 11.8407
rhand -8.89381 -5.73355
rfingers 7.12502
rthumb 17.0487 -35.0055
lclavicle -4.68138e-014 -9.14409e-015
lhumerus -51.6815 10.6542 66.311
lradius 29.9581
lwrist -21.6192
lhand -2.44113 13.3138
lfingers 7.12502
lthumb 23.2502 41.9301
rfemur -0.00246053 2.3236 24.2689
rtibia 27.6893
rfoot -14.0282 1.99299
rtoes -21.1711
lfemur -30.4897 -3.94819 -21.3545
ltibia 24.3854
lfoot -10.174 15.4959
ltoes 5.84375
